<mxfile host="Electron" modified="2023-09-10T15:26:42.192Z" agent="Mozilla/5.0 (X11; Linux x86_64) AppleWebKit/537.36 (KHTML, like Gecko) draw.io/21.5.0 Chrome/112.0.5615.204 Electron/24.5.1 Safari/537.36" etag="41ZUL546RJEYzSxKTieC" version="21.5.0" type="device">
  <diagram name="Page-1" id="7BuO86Ln1zDnIpqoj6S8">
    <mxGraphModel dx="1135" dy="703" grid="1" gridSize="10" guides="1" tooltips="1" connect="1" arrows="1" fold="1" page="1" pageScale="1" pageWidth="850" pageHeight="1100" math="0" shadow="0">
      <root>
        <mxCell id="0" />
        <mxCell id="1" parent="0" />
        <mxCell id="rloHmN90bMfoKBIp6y1W-9" style="edgeStyle=orthogonalEdgeStyle;rounded=0;orthogonalLoop=1;jettySize=auto;html=1;exitX=0.5;exitY=1;exitDx=0;exitDy=0;exitPerimeter=0;entryX=0.5;entryY=0;entryDx=0;entryDy=0;" edge="1" parent="1" source="rloHmN90bMfoKBIp6y1W-1" target="rloHmN90bMfoKBIp6y1W-2">
          <mxGeometry relative="1" as="geometry" />
        </mxCell>
        <mxCell id="rloHmN90bMfoKBIp6y1W-1" value="&lt;font data-font-src=&quot;https://fonts.googleapis.com/css?family=Roboto+Mono&quot; face=&quot;Roboto Mono&quot;&gt;MULAI&lt;/font&gt;" style="strokeWidth=2;html=1;shape=mxgraph.flowchart.terminator;whiteSpace=wrap;" vertex="1" parent="1">
          <mxGeometry x="200" y="190" width="80" height="40" as="geometry" />
        </mxCell>
        <mxCell id="rloHmN90bMfoKBIp6y1W-10" style="edgeStyle=orthogonalEdgeStyle;rounded=0;orthogonalLoop=1;jettySize=auto;html=1;exitX=0.5;exitY=1;exitDx=0;exitDy=0;entryX=0.5;entryY=0;entryDx=0;entryDy=0;" edge="1" parent="1" source="rloHmN90bMfoKBIp6y1W-2" target="rloHmN90bMfoKBIp6y1W-3">
          <mxGeometry relative="1" as="geometry" />
        </mxCell>
        <mxCell id="rloHmN90bMfoKBIp6y1W-2" value="&lt;font data-font-src=&quot;https://fonts.googleapis.com/css?family=Roboto+Mono&quot; face=&quot;Roboto Mono&quot;&gt;tahun: INTEGER&lt;br&gt;saldo: REAL&lt;br&gt;suku_bunga: REAL&lt;br&gt;bunga: REAL&lt;br&gt;&lt;/font&gt;" style="rounded=1;whiteSpace=wrap;html=1;absoluteArcSize=1;arcSize=14;strokeWidth=2;" vertex="1" parent="1">
          <mxGeometry x="170" y="250" width="140" height="70" as="geometry" />
        </mxCell>
        <mxCell id="rloHmN90bMfoKBIp6y1W-11" style="edgeStyle=orthogonalEdgeStyle;rounded=0;orthogonalLoop=1;jettySize=auto;html=1;exitX=0.5;exitY=1;exitDx=0;exitDy=0;entryX=0.5;entryY=-0.029;entryDx=0;entryDy=0;entryPerimeter=0;" edge="1" parent="1" source="rloHmN90bMfoKBIp6y1W-3" target="rloHmN90bMfoKBIp6y1W-5">
          <mxGeometry relative="1" as="geometry" />
        </mxCell>
        <mxCell id="rloHmN90bMfoKBIp6y1W-3" value="&lt;font data-font-src=&quot;https://fonts.googleapis.com/css?family=Roboto+Mono&quot; face=&quot;Roboto Mono&quot;&gt;tahun = 0&lt;br&gt;suku_bunga = 0.05&lt;br&gt;saldo = 10000&lt;br&gt;&lt;/font&gt;" style="rounded=1;whiteSpace=wrap;html=1;absoluteArcSize=1;arcSize=14;strokeWidth=2;" vertex="1" parent="1">
          <mxGeometry x="170" y="340" width="140" height="70" as="geometry" />
        </mxCell>
        <mxCell id="rloHmN90bMfoKBIp6y1W-12" style="edgeStyle=orthogonalEdgeStyle;rounded=0;orthogonalLoop=1;jettySize=auto;html=1;exitX=0.5;exitY=1;exitDx=0;exitDy=0;exitPerimeter=0;entryX=0.5;entryY=0;entryDx=0;entryDy=0;" edge="1" parent="1" source="rloHmN90bMfoKBIp6y1W-5" target="rloHmN90bMfoKBIp6y1W-6">
          <mxGeometry relative="1" as="geometry">
            <Array as="points">
              <mxPoint x="240" y="440" />
              <mxPoint x="240" y="440" />
            </Array>
          </mxGeometry>
        </mxCell>
        <mxCell id="rloHmN90bMfoKBIp6y1W-16" value="TRUE" style="edgeLabel;html=1;align=center;verticalAlign=middle;resizable=0;points=[];" vertex="1" connectable="0" parent="rloHmN90bMfoKBIp6y1W-12">
          <mxGeometry x="-0.3379" relative="1" as="geometry">
            <mxPoint y="83" as="offset" />
          </mxGeometry>
        </mxCell>
        <mxCell id="rloHmN90bMfoKBIp6y1W-17" style="edgeStyle=orthogonalEdgeStyle;rounded=0;orthogonalLoop=1;jettySize=auto;html=1;exitX=1;exitY=0.5;exitDx=0;exitDy=0;exitPerimeter=0;" edge="1" parent="1" source="rloHmN90bMfoKBIp6y1W-5" target="rloHmN90bMfoKBIp6y1W-18">
          <mxGeometry relative="1" as="geometry">
            <mxPoint x="390" y="470" as="targetPoint" />
            <Array as="points">
              <mxPoint x="370" y="480" />
              <mxPoint x="370" y="740" />
              <mxPoint x="240" y="740" />
            </Array>
          </mxGeometry>
        </mxCell>
        <mxCell id="rloHmN90bMfoKBIp6y1W-19" value="FALSE" style="edgeLabel;html=1;align=center;verticalAlign=middle;resizable=0;points=[];" vertex="1" connectable="0" parent="rloHmN90bMfoKBIp6y1W-17">
          <mxGeometry x="-0.9469" y="1" relative="1" as="geometry">
            <mxPoint x="18" y="1" as="offset" />
          </mxGeometry>
        </mxCell>
        <mxCell id="rloHmN90bMfoKBIp6y1W-5" value="&lt;font data-font-src=&quot;https://fonts.googleapis.com/css?family=Roboto+Mono&quot; face=&quot;Roboto Mono&quot;&gt;saldo &amp;lt; 20000&lt;/font&gt;" style="strokeWidth=2;html=1;shape=mxgraph.flowchart.decision;whiteSpace=wrap;" vertex="1" parent="1">
          <mxGeometry x="170" y="450" width="140" height="60" as="geometry" />
        </mxCell>
        <mxCell id="rloHmN90bMfoKBIp6y1W-13" style="edgeStyle=orthogonalEdgeStyle;rounded=0;orthogonalLoop=1;jettySize=auto;html=1;exitX=0.5;exitY=1;exitDx=0;exitDy=0;entryX=0.5;entryY=0;entryDx=0;entryDy=0;" edge="1" parent="1" source="rloHmN90bMfoKBIp6y1W-6" target="rloHmN90bMfoKBIp6y1W-7">
          <mxGeometry relative="1" as="geometry" />
        </mxCell>
        <mxCell id="rloHmN90bMfoKBIp6y1W-6" value="&lt;font data-font-src=&quot;https://fonts.googleapis.com/css?family=Roboto+Mono&quot; face=&quot;Roboto Mono&quot;&gt;tahun = tahun + 1&lt;br&gt;&lt;/font&gt;" style="rounded=1;whiteSpace=wrap;html=1;absoluteArcSize=1;arcSize=14;strokeWidth=2;" vertex="1" parent="1">
          <mxGeometry x="170" y="560" width="140" height="40" as="geometry" />
        </mxCell>
        <mxCell id="rloHmN90bMfoKBIp6y1W-14" style="edgeStyle=orthogonalEdgeStyle;rounded=0;orthogonalLoop=1;jettySize=auto;html=1;exitX=0.5;exitY=1;exitDx=0;exitDy=0;entryX=0.5;entryY=0;entryDx=0;entryDy=0;" edge="1" parent="1" source="rloHmN90bMfoKBIp6y1W-7" target="rloHmN90bMfoKBIp6y1W-8">
          <mxGeometry relative="1" as="geometry" />
        </mxCell>
        <mxCell id="rloHmN90bMfoKBIp6y1W-7" value="&lt;font data-font-src=&quot;https://fonts.googleapis.com/css?family=Roboto+Mono&quot; face=&quot;Roboto Mono&quot;&gt;bunga = saldo * suku_bunga&lt;br&gt;&lt;/font&gt;" style="rounded=1;whiteSpace=wrap;html=1;absoluteArcSize=1;arcSize=14;strokeWidth=2;" vertex="1" parent="1">
          <mxGeometry x="130" y="620" width="220" height="40" as="geometry" />
        </mxCell>
        <mxCell id="rloHmN90bMfoKBIp6y1W-15" style="edgeStyle=orthogonalEdgeStyle;rounded=0;orthogonalLoop=1;jettySize=auto;html=1;exitX=0;exitY=0.5;exitDx=0;exitDy=0;" edge="1" parent="1" source="rloHmN90bMfoKBIp6y1W-8">
          <mxGeometry relative="1" as="geometry">
            <mxPoint x="240" y="430" as="targetPoint" />
            <Array as="points">
              <mxPoint x="110" y="700" />
              <mxPoint x="110" y="430" />
              <mxPoint x="240" y="430" />
            </Array>
          </mxGeometry>
        </mxCell>
        <mxCell id="rloHmN90bMfoKBIp6y1W-8" value="&lt;font data-font-src=&quot;https://fonts.googleapis.com/css?family=Roboto+Mono&quot; face=&quot;Roboto Mono&quot;&gt;saldo = saldo + bunga&lt;br&gt;&lt;/font&gt;" style="rounded=1;whiteSpace=wrap;html=1;absoluteArcSize=1;arcSize=14;strokeWidth=2;" vertex="1" parent="1">
          <mxGeometry x="140" y="680" width="200" height="40" as="geometry" />
        </mxCell>
        <mxCell id="rloHmN90bMfoKBIp6y1W-21" style="edgeStyle=orthogonalEdgeStyle;rounded=0;orthogonalLoop=1;jettySize=auto;html=1;exitX=0.5;exitY=1;exitDx=0;exitDy=0;entryX=0.5;entryY=0;entryDx=0;entryDy=0;entryPerimeter=0;" edge="1" parent="1" source="rloHmN90bMfoKBIp6y1W-18" target="rloHmN90bMfoKBIp6y1W-20">
          <mxGeometry relative="1" as="geometry" />
        </mxCell>
        <mxCell id="rloHmN90bMfoKBIp6y1W-18" value="WRITE tahun" style="shape=parallelogram;html=1;strokeWidth=2;perimeter=parallelogramPerimeter;whiteSpace=wrap;rounded=1;arcSize=12;size=0.1607142857142857;" vertex="1" parent="1">
          <mxGeometry x="170" y="760" width="140" height="40" as="geometry" />
        </mxCell>
        <mxCell id="rloHmN90bMfoKBIp6y1W-20" value="&lt;font data-font-src=&quot;https://fonts.googleapis.com/css?family=Roboto+Mono&quot; face=&quot;Roboto Mono&quot;&gt;MULAI&lt;/font&gt;" style="strokeWidth=2;html=1;shape=mxgraph.flowchart.terminator;whiteSpace=wrap;" vertex="1" parent="1">
          <mxGeometry x="200" y="820" width="80" height="40" as="geometry" />
        </mxCell>
      </root>
    </mxGraphModel>
  </diagram>
</mxfile>
